<svg xmlns="http://www.w3.org/2000/svg" viewBox="0 0 261.42 652">
  <g fill="#f8f8f8" fill-rule="evenodd">
    <path
      d="M157.29 652h-51.62a9 9 0 01-9-9 9.12 9.12 0 01.39-2.64l94.14-307a9 9 0 018.6-6.36h51.62a9 9 0 019 9 9.12 9.12 0 01-.39 2.64l-94.14 307a9 9 0 01-8.6 6.36z">
    </path>
    <path
      d="M107.78 652h26.51a21 21 0 0020.08-27.16l-86.78-283A21 21 0 0047.52 327H21A21 21 0 00.92 354.16l86.78 283A21 21 0 00107.78 652zM158.29 0h-51.62a9 9 0 00-9 9 9.12 9.12 0 00.39 2.64l94.14 307a9 9 0 008.6 6.36h51.62a9 9 0 009-9 9.12 9.12 0 00-.39-2.64l-94.14-307a9 9 0 00-8.6-6.36z">
    </path>
    <path
      d="M108.78 0h26.51a21 21 0 0120.08 27.16l-86.78 283A21 21 0 0148.52 325H22a21 21 0 01-20.08-27.16l86.78-283A21 21 0 01108.78 0z">
    </path>
  </g>
</svg>